<mxfile host="drawio-plugin" modified="2023-02-17T12:16:33.637Z" agent="5.0 (Macintosh; Intel Mac OS X 10_15_7) AppleWebKit/537.36 (KHTML, like Gecko) Chrome/104.0.5112.102 Safari/537.36" etag="uN0khECrujsLzqjQ1cjR" version="20.5.3" type="embed"><diagram id="Y9Fh5wr30xi6ajuE-iPn" name="Seite-1"><mxGraphModel dx="795" dy="1076" grid="1" gridSize="10" guides="1" tooltips="1" connect="1" arrows="1" fold="1" page="1" pageScale="1" pageWidth="827" pageHeight="1169" math="0" shadow="0"><root><mxCell id="0"/><mxCell id="1" parent="0"/><mxCell id="20" style="edgeStyle=orthogonalEdgeStyle;rounded=0;orthogonalLoop=1;jettySize=auto;html=1;exitX=0.5;exitY=0;exitDx=0;exitDy=0;entryX=0;entryY=0.5;entryDx=0;entryDy=0;endArrow=none;endFill=0;" edge="1" parent="1" source="Pei53E6MJL8mfhPMOaM8-1" target="2"><mxGeometry relative="1" as="geometry"><Array as="points"><mxPoint x="290" y="310"/><mxPoint x="290" y="170"/><mxPoint x="380" y="170"/></Array></mxGeometry></mxCell><mxCell id="21" value="currentPlayer&lt;br&gt;0..1" style="edgeLabel;html=1;align=center;verticalAlign=middle;resizable=0;points=[];" vertex="1" connectable="0" parent="20"><mxGeometry x="-0.7197" y="-3" relative="1" as="geometry"><mxPoint x="37" as="offset"/></mxGeometry></mxCell><mxCell id="Pei53E6MJL8mfhPMOaM8-1" value="Player" style="swimlane;fontStyle=0;childLayout=stackLayout;horizontal=1;startSize=26;fillColor=none;horizontalStack=0;resizeParent=1;resizeParentMax=0;resizeLast=0;collapsible=1;marginBottom=0;" parent="1" vertex="1"><mxGeometry x="200" y="310" width="140" height="52" as="geometry"/></mxCell><mxCell id="Pei53E6MJL8mfhPMOaM8-2" value="name: String" style="text;strokeColor=none;fillColor=none;align=left;verticalAlign=top;spacingLeft=4;spacingRight=4;overflow=hidden;rotatable=0;points=[[0,0.5],[1,0.5]];portConstraint=eastwest;" parent="Pei53E6MJL8mfhPMOaM8-1" vertex="1"><mxGeometry y="26" width="140" height="26" as="geometry"/></mxCell><mxCell id="15" style="edgeStyle=orthogonalEdgeStyle;rounded=0;orthogonalLoop=1;jettySize=auto;html=1;exitX=1;exitY=0.5;exitDx=0;exitDy=0;entryX=0.5;entryY=0;entryDx=0;entryDy=0;endArrow=none;endFill=0;" edge="1" parent="1" source="2" target="11"><mxGeometry relative="1" as="geometry"/></mxCell><mxCell id="16" value="discardPile&lt;br&gt;0..1" style="edgeLabel;html=1;align=center;verticalAlign=middle;resizable=0;points=[];" vertex="1" connectable="0" parent="15"><mxGeometry x="0.8417" y="1" relative="1" as="geometry"><mxPoint x="29" y="2" as="offset"/></mxGeometry></mxCell><mxCell id="17" style="edgeStyle=orthogonalEdgeStyle;rounded=0;orthogonalLoop=1;jettySize=auto;html=1;exitX=0;exitY=0.5;exitDx=0;exitDy=0;entryX=0.5;entryY=0;entryDx=0;entryDy=0;endArrow=none;endFill=0;" edge="1" parent="1" source="2" target="Pei53E6MJL8mfhPMOaM8-1"><mxGeometry relative="1" as="geometry"/></mxCell><mxCell id="18" value="players&lt;br&gt;0..n" style="edgeLabel;html=1;align=center;verticalAlign=middle;resizable=0;points=[];" vertex="1" connectable="0" parent="17"><mxGeometry x="0.8333" y="1" relative="1" as="geometry"><mxPoint x="-31" y="2" as="offset"/></mxGeometry></mxCell><mxCell id="19" value="game&lt;br&gt;0..1" style="edgeLabel;html=1;align=center;verticalAlign=middle;resizable=0;points=[];" vertex="1" connectable="0" parent="17"><mxGeometry x="-0.8485" relative="1" as="geometry"><mxPoint y="-16" as="offset"/></mxGeometry></mxCell><mxCell id="22" value="game&lt;br&gt;0..1" style="edgeLabel;html=1;align=center;verticalAlign=middle;resizable=0;points=[];" vertex="1" connectable="0" parent="17"><mxGeometry x="-0.8485" relative="1" as="geometry"><mxPoint y="34" as="offset"/></mxGeometry></mxCell><mxCell id="2" value="Game" style="swimlane;fontStyle=0;childLayout=stackLayout;horizontal=1;startSize=26;fillColor=none;horizontalStack=0;resizeParent=1;resizeParentMax=0;resizeLast=0;collapsible=1;marginBottom=0;" vertex="1" parent="1"><mxGeometry x="380" y="130" width="140" height="52" as="geometry"/></mxCell><mxCell id="6" value="Bot" style="swimlane;fontStyle=0;childLayout=stackLayout;horizontal=1;startSize=26;fillColor=none;horizontalStack=0;resizeParent=1;resizeParentMax=0;resizeLast=0;collapsible=1;marginBottom=0;" vertex="1" parent="1"><mxGeometry x="200" y="429" width="140" height="31" as="geometry"/></mxCell><mxCell id="10" value="" style="endArrow=blockThin;endFill=1;endSize=12;html=1;rounded=0;" edge="1" parent="1" source="6" target="Pei53E6MJL8mfhPMOaM8-1"><mxGeometry width="160" relative="1" as="geometry"><mxPoint x="330" y="550" as="sourcePoint"/><mxPoint x="490" y="550" as="targetPoint"/></mxGeometry></mxCell><mxCell id="11" value="Card" style="swimlane;fontStyle=0;childLayout=stackLayout;horizontal=1;startSize=26;fillColor=none;horizontalStack=0;resizeParent=1;resizeParentMax=0;resizeLast=0;collapsible=1;marginBottom=0;" vertex="1" parent="1"><mxGeometry x="540" y="323" width="140" height="52" as="geometry"/></mxCell><mxCell id="12" value="value: int" style="text;strokeColor=none;fillColor=none;align=left;verticalAlign=top;spacingLeft=4;spacingRight=4;overflow=hidden;rotatable=0;points=[[0,0.5],[1,0.5]];portConstraint=eastwest;" vertex="1" parent="11"><mxGeometry y="26" width="140" height="26" as="geometry"/></mxCell><mxCell id="13" style="edgeStyle=orthogonalEdgeStyle;rounded=0;orthogonalLoop=1;jettySize=auto;html=1;endArrow=none;endFill=0;" edge="1" parent="1" source="Pei53E6MJL8mfhPMOaM8-2" target="11"><mxGeometry relative="1" as="geometry"/></mxCell><mxCell id="14" value="cards&lt;br&gt;0..n" style="edgeLabel;html=1;align=center;verticalAlign=middle;resizable=0;points=[];" vertex="1" connectable="0" parent="13"><mxGeometry x="0.7853" y="-1" relative="1" as="geometry"><mxPoint x="-1" y="12" as="offset"/></mxGeometry></mxCell><mxCell id="34" style="edgeStyle=orthogonalEdgeStyle;rounded=0;orthogonalLoop=1;jettySize=auto;html=1;exitX=0.5;exitY=0;exitDx=0;exitDy=0;entryX=0.5;entryY=1;entryDx=0;entryDy=0;entryPerimeter=0;endArrow=none;endFill=0;" edge="1" parent="1" source="23" target="12"><mxGeometry relative="1" as="geometry"/></mxCell><mxCell id="35" value="color&lt;br&gt;0..1" style="edgeLabel;html=1;align=center;verticalAlign=middle;resizable=0;points=[];" vertex="1" connectable="0" parent="34"><mxGeometry x="-0.5556" y="-2" relative="1" as="geometry"><mxPoint x="18" y="-7" as="offset"/></mxGeometry></mxCell><mxCell id="23" value="&lt;&lt;enumeration&gt;&gt;&#10;CardColor" style="swimlane;fontStyle=0;childLayout=stackLayout;horizontal=1;startSize=26;fillColor=none;horizontalStack=0;resizeParent=1;resizeParentMax=0;resizeLast=0;collapsible=1;marginBottom=0;" vertex="1" parent="1"><mxGeometry x="540" y="429" width="140" height="156" as="geometry"/></mxCell><mxCell id="24" value="red" style="text;strokeColor=none;fillColor=none;align=left;verticalAlign=top;spacingLeft=4;spacingRight=4;overflow=hidden;rotatable=0;points=[[0,0.5],[1,0.5]];portConstraint=eastwest;" vertex="1" parent="23"><mxGeometry y="26" width="140" height="26" as="geometry"/></mxCell><mxCell id="25" value="green" style="text;strokeColor=none;fillColor=none;align=left;verticalAlign=top;spacingLeft=4;spacingRight=4;overflow=hidden;rotatable=0;points=[[0,0.5],[1,0.5]];portConstraint=eastwest;" vertex="1" parent="23"><mxGeometry y="52" width="140" height="26" as="geometry"/></mxCell><mxCell id="26" value="blue" style="text;strokeColor=none;fillColor=none;align=left;verticalAlign=top;spacingLeft=4;spacingRight=4;overflow=hidden;rotatable=0;points=[[0,0.5],[1,0.5]];portConstraint=eastwest;" vertex="1" parent="23"><mxGeometry y="78" width="140" height="26" as="geometry"/></mxCell><mxCell id="27" value="yellow" style="text;strokeColor=none;fillColor=none;align=left;verticalAlign=top;spacingLeft=4;spacingRight=4;overflow=hidden;rotatable=0;points=[[0,0.5],[1,0.5]];portConstraint=eastwest;" vertex="1" parent="23"><mxGeometry y="104" width="140" height="26" as="geometry"/></mxCell><mxCell id="33" value="black" style="text;strokeColor=none;fillColor=none;align=left;verticalAlign=top;spacingLeft=4;spacingRight=4;overflow=hidden;rotatable=0;points=[[0,0.5],[1,0.5]];portConstraint=eastwest;" vertex="1" parent="23"><mxGeometry y="130" width="140" height="26" as="geometry"/></mxCell></root></mxGraphModel></diagram></mxfile>